<?xml version="1.0" encoding="UTF-8" standalone="no"?>
<!DOCTYPE svg PUBLIC "-//W3C//DTD SVG 1.1//EN"
 "http://www.w3.org/Graphics/SVG/1.1/DTD/svg11.dtd">
<!-- Generated by graphviz version 2.38.0 (20140413.2041)
 -->
<!-- Title: controllers_diagram Pages: 1 -->
<svg width="460pt" height="517pt"
 viewBox="0.00 0.00 459.50 517.00" xmlns="http://www.w3.org/2000/svg" xmlns:xlink="http://www.w3.org/1999/xlink">
<g id="graph0" class="graph" transform="scale(1 1) rotate(0) translate(132 305.5)">
<title>controllers_diagram</title>
<polygon fill="none" stroke="none" points="-132,211.5 -132,-305.5 327.5,-305.5 327.5,211.5 -132,211.5"/>
<!-- _diagram_info -->
<g id="node1" class="node"><title>_diagram_info</title>
<text text-anchor="start" x="88" y="16.4" font-family="Times,serif" font-size="13.00">Controllers diagram</text>
<text text-anchor="start" x="88" y="30.4" font-family="Times,serif" font-size="13.00">Date: Apr 14 2018 &#45; 22:19</text>
<text text-anchor="start" x="88" y="44.4" font-family="Times,serif" font-size="13.00">Migration version: 20170526204821</text>
<text text-anchor="start" x="88" y="58.4" font-family="Times,serif" font-size="13.00">Generated by RailRoady 1.5.3</text>
<text text-anchor="start" x="88" y="72.4" font-family="Times,serif" font-size="13.00">http://railroady.prestonlee.com</text>
</g>
<!-- DailyProgressLogsController -->
<g id="node2" class="node"><title>DailyProgressLogsController</title>
<path fill="none" stroke="black" d="M-116,-144.5C-116,-144.5 36,-144.5 36,-144.5 42,-144.5 48,-150.5 48,-156.5 48,-156.5 48,-225.5 48,-225.5 48,-231.5 42,-237.5 36,-237.5 36,-237.5 -116,-237.5 -116,-237.5 -122,-237.5 -128,-231.5 -128,-225.5 -128,-225.5 -128,-156.5 -128,-156.5 -128,-150.5 -122,-144.5 -116,-144.5"/>
<text text-anchor="middle" x="-40" y="-222.3" font-family="Times,serif" font-size="14.00">DailyProgressLogsController</text>
<polyline fill="none" stroke="black" points="-128,-214.5 48,-214.5 "/>
<text text-anchor="start" x="-120" y="-199.3" font-family="Times,serif" font-size="14.00">index</text>
<polyline fill="none" stroke="black" points="-128,-191.5 48,-191.5 "/>
<polyline fill="none" stroke="black" points="-128,-167.5 48,-167.5 "/>
<text text-anchor="start" x="-120" y="-152.3" font-family="Times,serif" font-size="14.00">_layout</text>
</g>
<!-- LeadsController -->
<g id="node3" class="node"><title>LeadsController</title>
<path fill="none" stroke="black" d="M-52,127.5C-52,127.5 28,127.5 28,127.5 34,127.5 40,121.5 40,115.5 40,115.5 40,-103.5 40,-103.5 40,-109.5 34,-115.5 28,-115.5 28,-115.5 -52,-115.5 -52,-115.5 -58,-115.5 -64,-109.5 -64,-103.5 -64,-103.5 -64,115.5 -64,115.5 -64,121.5 -58,127.5 -52,127.5"/>
<text text-anchor="middle" x="-12" y="-100.3" font-family="Times,serif" font-size="14.00">LeadsController</text>
<polyline fill="none" stroke="black" points="-64,-92.5 40,-92.5 "/>
<text text-anchor="start" x="-56" y="-77.3" font-family="Times,serif" font-size="14.00">create</text>
<text text-anchor="start" x="-56" y="-62.3" font-family="Times,serif" font-size="14.00">edit</text>
<text text-anchor="start" x="-56" y="-47.3" font-family="Times,serif" font-size="14.00">index</text>
<text text-anchor="start" x="-56" y="-32.3" font-family="Times,serif" font-size="14.00">new</text>
<text text-anchor="start" x="-56" y="-17.3" font-family="Times,serif" font-size="14.00">next</text>
<text text-anchor="start" x="-56" y="-2.3" font-family="Times,serif" font-size="14.00">no_leads</text>
<text text-anchor="start" x="-56" y="12.7" font-family="Times,serif" font-size="14.00">text</text>
<text text-anchor="start" x="-56" y="27.7" font-family="Times,serif" font-size="14.00">token</text>
<text text-anchor="start" x="-56" y="42.7" font-family="Times,serif" font-size="14.00">update</text>
<text text-anchor="start" x="-56" y="57.7" font-family="Times,serif" font-size="14.00">voice</text>
<polyline fill="none" stroke="black" points="-64,65.5 40,65.5 "/>
<polyline fill="none" stroke="black" points="-64,89.5 40,89.5 "/>
<text text-anchor="start" x="-56" y="104.7" font-family="Times,serif" font-size="14.00">_layout</text>
<text text-anchor="start" x="-56" y="119.7" font-family="Times,serif" font-size="14.00">lead_params</text>
</g>
<!-- WebhooksController -->
<g id="node4" class="node"><title>WebhooksController</title>
<path fill="none" stroke="black" d="M204.5,-193C204.5,-193 311.5,-193 311.5,-193 317.5,-193 323.5,-199 323.5,-205 323.5,-205 323.5,-289 323.5,-289 323.5,-295 317.5,-301 311.5,-301 311.5,-301 204.5,-301 204.5,-301 198.5,-301 192.5,-295 192.5,-289 192.5,-289 192.5,-205 192.5,-205 192.5,-199 198.5,-193 204.5,-193"/>
<text text-anchor="middle" x="258" y="-285.8" font-family="Times,serif" font-size="14.00">WebhooksController</text>
<polyline fill="none" stroke="black" points="192.5,-278 323.5,-278 "/>
<text text-anchor="start" x="200.5" y="-262.8" font-family="Times,serif" font-size="14.00">incoming_text</text>
<text text-anchor="start" x="200.5" y="-247.8" font-family="Times,serif" font-size="14.00">incoming_voice</text>
<polyline fill="none" stroke="black" points="192.5,-240 323.5,-240 "/>
<polyline fill="none" stroke="black" points="192.5,-216 323.5,-216 "/>
<text text-anchor="start" x="200.5" y="-200.8" font-family="Times,serif" font-size="14.00">_layout</text>
</g>
<!-- Api::V1::LeadsController -->
<g id="node5" class="node"><title>Api::V1::LeadsController</title>
<path fill="none" stroke="black" d="M92,-32.5C92,-32.5 224,-32.5 224,-32.5 230,-32.5 236,-38.5 236,-44.5 236,-44.5 236,-143.5 236,-143.5 236,-149.5 230,-155.5 224,-155.5 224,-155.5 92,-155.5 92,-155.5 86,-155.5 80,-149.5 80,-143.5 80,-143.5 80,-44.5 80,-44.5 80,-38.5 86,-32.5 92,-32.5"/>
<text text-anchor="middle" x="158" y="-140.3" font-family="Times,serif" font-size="14.00">Api::V1::LeadsController</text>
<polyline fill="none" stroke="black" points="80,-132.5 236,-132.5 "/>
<text text-anchor="start" x="88" y="-117.3" font-family="Times,serif" font-size="14.00">create</text>
<text text-anchor="start" x="88" y="-102.3" font-family="Times,serif" font-size="14.00">index</text>
<text text-anchor="start" x="88" y="-87.3" font-family="Times,serif" font-size="14.00">show</text>
<polyline fill="none" stroke="black" points="80,-79.5 236,-79.5 "/>
<polyline fill="none" stroke="black" points="80,-55.5 236,-55.5 "/>
<text text-anchor="start" x="88" y="-40.3" font-family="Times,serif" font-size="14.00">_layout</text>
</g>
<!-- ApplicationController -->
<g id="node6" class="node"><title>ApplicationController</title>
<path fill="none" stroke="black" d="M92,207C92,207 204,207 204,207 210,207 216,201 216,195 216,195 216,125 216,125 216,119 210,113 204,113 204,113 92,113 92,113 86,113 80,119 80,125 80,125 80,195 80,195 80,201 86,207 92,207"/>
<text text-anchor="middle" x="148" y="128.2" font-family="Times,serif" font-size="14.00">ApplicationController</text>
<polyline fill="none" stroke="black" points="80,136 216,136 "/>
<polyline fill="none" stroke="black" points="80,160 216,160 "/>
<polyline fill="none" stroke="black" points="80,184 216,184 "/>
<text text-anchor="start" x="88" y="199.2" font-family="Times,serif" font-size="14.00">_layout</text>
</g>
</g>
</svg>
