<?xml version="1.0" encoding="UTF-8" standalone="no"?>
<!DOCTYPE svg PUBLIC "-//W3C//DTD SVG 1.1//EN"
 "http://www.w3.org/Graphics/SVG/1.1/DTD/svg11.dtd">
<!-- Generated by graphviz version 2.38.0 (20140413.2041)
 -->
<!-- Title: models_diagram Pages: 1 -->
<svg width="601pt" height="158pt"
 viewBox="0.00 0.00 601.34 158.00" xmlns="http://www.w3.org/2000/svg" xmlns:xlink="http://www.w3.org/1999/xlink">
<g id="graph0" class="graph" transform="scale(1 1) rotate(0) translate(4 154)">
<title>models_diagram</title>
<polygon fill="none" stroke="none" points="-4,4 -4,-154 597.343,-154 597.343,4 -4,4"/>
<!-- _diagram_info -->
<g id="node1" class="node"><title>_diagram_info</title>
<text text-anchor="start" x="8" y="-135.6" font-family="Times,serif" font-size="13.00">Models diagram</text>
<text text-anchor="start" x="8" y="-121.6" font-family="Times,serif" font-size="13.00">Date: Apr 14 2018 &#45; 22:19</text>
<text text-anchor="start" x="8" y="-107.6" font-family="Times,serif" font-size="13.00">Migration version: 20170526204821</text>
<text text-anchor="start" x="8" y="-93.6" font-family="Times,serif" font-size="13.00">Generated by RailRoady 1.5.3</text>
<text text-anchor="start" x="8" y="-79.6" font-family="Times,serif" font-size="13.00">http://railroady.prestonlee.com</text>
</g>
<!-- Admin -->
<g id="node2" class="node"><title>Admin</title>
<ellipse fill="none" stroke="black" cx="268" cy="-111" rx="35.9954" ry="18"/>
<text text-anchor="middle" x="268" y="-107.3" font-family="Times,serif" font-size="14.00">Admin</text>
</g>
<!-- DailyProgressLog -->
<g id="node5" class="node"><title>DailyProgressLog</title>
<ellipse fill="none" stroke="black" cx="268" cy="-18" rx="74.9875" ry="18"/>
<text text-anchor="middle" x="268" y="-14.3" font-family="Times,serif" font-size="14.00">DailyProgressLog</text>
</g>
<!-- Admin&#45;&gt;DailyProgressLog -->
<g id="edge1" class="edge"><title>Admin&#45;&gt;DailyProgressLog</title>
<path fill="none" stroke="#a5f719" d="M268,-84.7285C268,-72.7246 268,-58.3622 268,-46.1291"/>
<ellipse fill="none" stroke="#a5f719" cx="268" cy="-88.8836" rx="4" ry="4"/>
<polygon fill="#a5f719" stroke="#a5f719" points="268,-46.0397 272.5,-36.0396 268,-41.0397 268,-36.0397 268,-36.0397 268,-36.0397 268,-41.0397 263.5,-36.0397 268,-46.0397 268,-46.0397"/>
</g>
<!-- Lead -->
<g id="node3" class="node"><title>Lead</title>
<ellipse fill="none" stroke="black" cx="392" cy="-111" rx="28.6953" ry="18"/>
<text text-anchor="middle" x="392" y="-107.3" font-family="Times,serif" font-size="14.00">Lead</text>
</g>
<!-- Event -->
<g id="node6" class="node"><title>Event</title>
<ellipse fill="none" stroke="black" cx="392" cy="-18" rx="31.3957" ry="18"/>
<text text-anchor="middle" x="392" y="-14.3" font-family="Times,serif" font-size="14.00">Event</text>
</g>
<!-- Lead&#45;&gt;Event -->
<g id="edge2" class="edge"><title>Lead&#45;&gt;Event</title>
<path fill="none" stroke="#76b8ef" d="M392,-84.7285C392,-72.7246 392,-58.3622 392,-46.1291"/>
<ellipse fill="none" stroke="#76b8ef" cx="392" cy="-88.8836" rx="4" ry="4"/>
<polygon fill="#76b8ef" stroke="#76b8ef" points="392,-46.0397 396.5,-36.0396 392,-41.0397 392,-36.0397 392,-36.0397 392,-36.0397 392,-41.0397 387.5,-36.0397 392,-46.0397 392,-46.0397"/>
</g>
<!-- ApplicationRecord -->
<g id="node4" class="node"><title>ApplicationRecord</title>
<ellipse fill="none" stroke="black" cx="516" cy="-111" rx="77.1866" ry="18"/>
<text text-anchor="middle" x="516" y="-107.3" font-family="Times,serif" font-size="14.00">ApplicationRecord</text>
</g>
</g>
</svg>
