<?xml version="1.0" encoding="UTF-8" standalone="no"?>
<!DOCTYPE svg PUBLIC "-//W3C//DTD SVG 1.1//EN"
 "http://www.w3.org/Graphics/SVG/1.1/DTD/svg11.dtd">
<!-- Generated by graphviz version 2.38.0 (20140413.2041)
 -->
<!-- Title: models_diagram Pages: 1 -->
<svg width="1026pt" height="843pt"
 viewBox="0.00 0.00 1026.34 843.00" xmlns="http://www.w3.org/2000/svg" xmlns:xlink="http://www.w3.org/1999/xlink">
<g id="graph0" class="graph" transform="scale(1 1) rotate(0) translate(4 839)">
<title>models_diagram</title>
<polygon fill="none" stroke="none" points="-4,4 -4,-839 1022.34,-839 1022.34,4 -4,4"/>
<!-- _diagram_info -->
<g id="node1" class="node"><title>_diagram_info</title>
<text text-anchor="start" x="8" y="-536.1" font-family="Times,serif" font-size="13.00">Models diagram</text>
<text text-anchor="start" x="8" y="-522.1" font-family="Times,serif" font-size="13.00">Date: Apr 14 2018 &#45; 22:19</text>
<text text-anchor="start" x="8" y="-508.1" font-family="Times,serif" font-size="13.00">Migration version: 20170526204821</text>
<text text-anchor="start" x="8" y="-494.1" font-family="Times,serif" font-size="13.00">Generated by RailRoady 1.5.3</text>
<text text-anchor="start" x="8" y="-480.1" font-family="Times,serif" font-size="13.00">http://railroady.prestonlee.com</text>
</g>
<!-- Admin -->
<g id="node2" class="node"><title>Admin</title>
<path fill="none" stroke="black" d="M244.5,-376C244.5,-376 533.5,-376 533.5,-376 539.5,-376 545.5,-382 545.5,-388 545.5,-388 545.5,-635 545.5,-635 545.5,-641 539.5,-647 533.5,-647 533.5,-647 244.5,-647 244.5,-647 238.5,-647 232.5,-641 232.5,-635 232.5,-635 232.5,-388 232.5,-388 232.5,-382 238.5,-376 244.5,-376"/>
<text text-anchor="middle" x="389" y="-631.8" font-family="Times,serif" font-size="14.00">Admin</text>
<polyline fill="none" stroke="black" points="232.5,-624 545.5,-624 "/>
<text text-anchor="start" x="240.5" y="-608.8" font-family="Times,serif" font-size="14.00">id :integer</text>
<text text-anchor="start" x="240.5" y="-593.8" font-family="Times,serif" font-size="14.00">email :character varying</text>
<text text-anchor="start" x="240.5" y="-578.8" font-family="Times,serif" font-size="14.00">encrypted_password :character varying</text>
<text text-anchor="start" x="240.5" y="-563.8" font-family="Times,serif" font-size="14.00">reset_password_token :character varying</text>
<text text-anchor="start" x="240.5" y="-548.8" font-family="Times,serif" font-size="14.00">reset_password_sent_at :timestamp without time zone</text>
<text text-anchor="start" x="240.5" y="-533.8" font-family="Times,serif" font-size="14.00">remember_created_at :timestamp without time zone</text>
<text text-anchor="start" x="240.5" y="-518.8" font-family="Times,serif" font-size="14.00">sign_in_count :integer</text>
<text text-anchor="start" x="240.5" y="-503.8" font-family="Times,serif" font-size="14.00">current_sign_in_at :timestamp without time zone</text>
<text text-anchor="start" x="240.5" y="-488.8" font-family="Times,serif" font-size="14.00">last_sign_in_at :timestamp without time zone</text>
<text text-anchor="start" x="240.5" y="-473.8" font-family="Times,serif" font-size="14.00">current_sign_in_ip :inet</text>
<text text-anchor="start" x="240.5" y="-458.8" font-family="Times,serif" font-size="14.00">last_sign_in_ip :inet</text>
<text text-anchor="start" x="240.5" y="-443.8" font-family="Times,serif" font-size="14.00">created_at :timestamp without time zone</text>
<text text-anchor="start" x="240.5" y="-428.8" font-family="Times,serif" font-size="14.00">updated_at :timestamp without time zone</text>
<text text-anchor="start" x="240.5" y="-413.8" font-family="Times,serif" font-size="14.00">first_name :character varying</text>
<text text-anchor="start" x="240.5" y="-398.8" font-family="Times,serif" font-size="14.00">last_name :character varying</text>
<text text-anchor="start" x="240.5" y="-383.8" font-family="Times,serif" font-size="14.00">role :character varying</text>
</g>
<!-- DailyProgressLog -->
<g id="node5" class="node"><title>DailyProgressLog</title>
<path fill="none" stroke="black" d="M279,-0.5C279,-0.5 499,-0.5 499,-0.5 505,-0.5 511,-6.5 511,-12.5 511,-12.5 511,-139.5 511,-139.5 511,-145.5 505,-151.5 499,-151.5 499,-151.5 279,-151.5 279,-151.5 273,-151.5 267,-145.5 267,-139.5 267,-139.5 267,-12.5 267,-12.5 267,-6.5 273,-0.5 279,-0.5"/>
<text text-anchor="middle" x="389" y="-136.3" font-family="Times,serif" font-size="14.00">DailyProgressLog</text>
<polyline fill="none" stroke="black" points="267,-128.5 511,-128.5 "/>
<text text-anchor="start" x="275" y="-113.3" font-family="Times,serif" font-size="14.00">id :integer</text>
<text text-anchor="start" x="275" y="-98.3" font-family="Times,serif" font-size="14.00">admin_id :integer</text>
<text text-anchor="start" x="275" y="-83.3" font-family="Times,serif" font-size="14.00">date :date</text>
<text text-anchor="start" x="275" y="-68.3" font-family="Times,serif" font-size="14.00">processed :integer</text>
<text text-anchor="start" x="275" y="-53.3" font-family="Times,serif" font-size="14.00">connects :integer</text>
<text text-anchor="start" x="275" y="-38.3" font-family="Times,serif" font-size="14.00">sets :integer</text>
<text text-anchor="start" x="275" y="-23.3" font-family="Times,serif" font-size="14.00">created_at :timestamp without time zone</text>
<text text-anchor="start" x="275" y="-8.3" font-family="Times,serif" font-size="14.00">updated_at :timestamp without time zone</text>
</g>
<!-- Admin&#45;&gt;DailyProgressLog -->
<g id="edge1" class="edge"><title>Admin&#45;&gt;DailyProgressLog</title>
<path fill="none" stroke="#4a629a" d="M389,-367.437C389,-299.434 389,-220.448 389,-162.027"/>
<ellipse fill="none" stroke="#4a629a" cx="389" cy="-371.714" rx="4" ry="4"/>
<polygon fill="#4a629a" stroke="#4a629a" points="389,-161.733 393.5,-151.733 389,-156.733 389,-151.733 389,-151.733 389,-151.733 389,-156.733 384.5,-151.733 389,-161.733 389,-161.733"/>
</g>
<!-- Lead -->
<g id="node3" class="node"><title>Lead</title>
<path fill="none" stroke="black" d="M576,-188.5C576,-188.5 834,-188.5 834,-188.5 840,-188.5 846,-194.5 846,-200.5 846,-200.5 846,-822.5 846,-822.5 846,-828.5 840,-834.5 834,-834.5 834,-834.5 576,-834.5 576,-834.5 570,-834.5 564,-828.5 564,-822.5 564,-822.5 564,-200.5 564,-200.5 564,-194.5 570,-188.5 576,-188.5"/>
<text text-anchor="middle" x="705" y="-819.3" font-family="Times,serif" font-size="14.00">Lead</text>
<polyline fill="none" stroke="black" points="564,-811.5 846,-811.5 "/>
<text text-anchor="start" x="572" y="-796.3" font-family="Times,serif" font-size="14.00">id :integer</text>
<text text-anchor="start" x="572" y="-781.3" font-family="Times,serif" font-size="14.00">first_name :character varying</text>
<text text-anchor="start" x="572" y="-766.3" font-family="Times,serif" font-size="14.00">last_name :character varying</text>
<text text-anchor="start" x="572" y="-751.3" font-family="Times,serif" font-size="14.00">email :character varying</text>
<text text-anchor="start" x="572" y="-736.3" font-family="Times,serif" font-size="14.00">phone :character varying</text>
<text text-anchor="start" x="572" y="-721.3" font-family="Times,serif" font-size="14.00">ip :character varying</text>
<text text-anchor="start" x="572" y="-706.3" font-family="Times,serif" font-size="14.00">city :character varying</text>
<text text-anchor="start" x="572" y="-691.3" font-family="Times,serif" font-size="14.00">state :character varying</text>
<text text-anchor="start" x="572" y="-676.3" font-family="Times,serif" font-size="14.00">zip :character varying</text>
<text text-anchor="start" x="572" y="-661.3" font-family="Times,serif" font-size="14.00">contacted :boolean</text>
<text text-anchor="start" x="572" y="-646.3" font-family="Times,serif" font-size="14.00">appointment_date :timestamp without time zone</text>
<text text-anchor="start" x="572" y="-631.3" font-family="Times,serif" font-size="14.00">created_at :timestamp without time zone</text>
<text text-anchor="start" x="572" y="-616.3" font-family="Times,serif" font-size="14.00">updated_at :timestamp without time zone</text>
<text text-anchor="start" x="572" y="-601.3" font-family="Times,serif" font-size="14.00">notes :text</text>
<text text-anchor="start" x="572" y="-586.3" font-family="Times,serif" font-size="14.00">connected :boolean</text>
<text text-anchor="start" x="572" y="-571.3" font-family="Times,serif" font-size="14.00">bad_number :boolean</text>
<text text-anchor="start" x="572" y="-556.3" font-family="Times,serif" font-size="14.00">advisor :character varying</text>
<text text-anchor="start" x="572" y="-541.3" font-family="Times,serif" font-size="14.00">location :character varying</text>
<text text-anchor="start" x="572" y="-526.3" font-family="Times,serif" font-size="14.00">standard_phone :character varying</text>
<text text-anchor="start" x="572" y="-511.3" font-family="Times,serif" font-size="14.00">exclude_from_calling :boolean</text>
<text text-anchor="start" x="572" y="-496.3" font-family="Times,serif" font-size="14.00">process_time :timestamp without time zone</text>
<text text-anchor="start" x="572" y="-481.3" font-family="Times,serif" font-size="14.00">hot :boolean</text>
<text text-anchor="start" x="572" y="-466.3" font-family="Times,serif" font-size="14.00">first_appointment_set :date</text>
<text text-anchor="start" x="572" y="-451.3" font-family="Times,serif" font-size="14.00">first_appointment_actual :date</text>
<text text-anchor="start" x="572" y="-436.3" font-family="Times,serif" font-size="14.00">first_appointment_format :character varying</text>
<text text-anchor="start" x="572" y="-421.3" font-family="Times,serif" font-size="14.00">second_appointment_set :date</text>
<text text-anchor="start" x="572" y="-406.3" font-family="Times,serif" font-size="14.00">second_appointment_actual :date</text>
<text text-anchor="start" x="572" y="-391.3" font-family="Times,serif" font-size="14.00">second_appointment_format :character varying</text>
<text text-anchor="start" x="572" y="-376.3" font-family="Times,serif" font-size="14.00">enrolled_date :date</text>
<text text-anchor="start" x="572" y="-361.3" font-family="Times,serif" font-size="14.00">deposit_date :date</text>
<text text-anchor="start" x="572" y="-346.3" font-family="Times,serif" font-size="14.00">sales :integer</text>
<text text-anchor="start" x="572" y="-331.3" font-family="Times,serif" font-size="14.00">collected :integer</text>
<text text-anchor="start" x="572" y="-316.3" font-family="Times,serif" font-size="14.00">status :character varying</text>
<text text-anchor="start" x="572" y="-301.3" font-family="Times,serif" font-size="14.00">next_step :character varying</text>
<text text-anchor="start" x="572" y="-286.3" font-family="Times,serif" font-size="14.00">rep_notes :text</text>
<text text-anchor="start" x="572" y="-271.3" font-family="Times,serif" font-size="14.00">number_of_dials :integer</text>
<text text-anchor="start" x="572" y="-256.3" font-family="Times,serif" font-size="14.00">old_lead :boolean</text>
<text text-anchor="start" x="572" y="-241.3" font-family="Times,serif" font-size="14.00">meeting_type :character varying</text>
<text text-anchor="start" x="572" y="-226.3" font-family="Times,serif" font-size="14.00">meeting_format :character varying</text>
<text text-anchor="start" x="572" y="-211.3" font-family="Times,serif" font-size="14.00">ip_state :character varying</text>
<text text-anchor="start" x="572" y="-196.3" font-family="Times,serif" font-size="14.00">online :boolean</text>
</g>
<!-- Event -->
<g id="node6" class="node"><title>Event</title>
<path fill="none" stroke="black" d="M595,-23C595,-23 815,-23 815,-23 821,-23 827,-29 827,-35 827,-35 827,-117 827,-117 827,-123 821,-129 815,-129 815,-129 595,-129 595,-129 589,-129 583,-123 583,-117 583,-117 583,-35 583,-35 583,-29 589,-23 595,-23"/>
<text text-anchor="middle" x="705" y="-113.8" font-family="Times,serif" font-size="14.00">Event</text>
<polyline fill="none" stroke="black" points="583,-106 827,-106 "/>
<text text-anchor="start" x="591" y="-90.8" font-family="Times,serif" font-size="14.00">id :integer</text>
<text text-anchor="start" x="591" y="-75.8" font-family="Times,serif" font-size="14.00">name :character varying</text>
<text text-anchor="start" x="591" y="-60.8" font-family="Times,serif" font-size="14.00">lead_id :integer</text>
<text text-anchor="start" x="591" y="-45.8" font-family="Times,serif" font-size="14.00">created_at :timestamp without time zone</text>
<text text-anchor="start" x="591" y="-30.8" font-family="Times,serif" font-size="14.00">updated_at :timestamp without time zone</text>
</g>
<!-- Lead&#45;&gt;Event -->
<g id="edge2" class="edge"><title>Lead&#45;&gt;Event</title>
<path fill="none" stroke="#367049" d="M705,-180.144C705,-165.35 705,-151.54 705,-139.139"/>
<ellipse fill="none" stroke="#367049" cx="705" cy="-184.355" rx="4" ry="4"/>
<polygon fill="#367049" stroke="#367049" points="705,-139.062 709.5,-129.062 705,-134.062 705,-129.062 705,-129.062 705,-129.062 705,-134.062 700.5,-129.062 705,-139.062 705,-139.062"/>
</g>
<!-- ApplicationRecord -->
<g id="node4" class="node"><title>ApplicationRecord</title>
<ellipse fill="none" stroke="black" cx="941" cy="-511.5" rx="77.1866" ry="18"/>
<text text-anchor="middle" x="941" y="-507.8" font-family="Times,serif" font-size="14.00">ApplicationRecord</text>
</g>
</g>
</svg>
